<?xml version="1.0" encoding="utf-8"?>
<svg version="1.1" id="zigsag" xmlns="http://www.w3.org/2000/svg" xmlns:xlink="http://www.w3.org/1999/xlink" x="0px" y="0px"
	 viewBox="0 0 392 13" style="enable-background:new 0 0 392 13;" xml:space="preserve">
<style type="text/css">
	.st0{fill:#7BC9A1;}
</style>
<g>
	<g>
		<path class="st0" d="M32.5,0.9l4.5,5.5l-4.5,5.5L28,6.4L32.5,0.9z"/>
		<path class="st0" d="M94.5,1L99,6.5l-4.5,5.5l-4.5-5.5L94.5,1z"/>
		<path class="st0" d="M41.4,1l4.5,5.5l-4.5,5.5l-4.5-5.5L41.4,1z"/>
		<path class="st0" d="M50.2,1l4.5,5.5l-4.5,5.5l-4.5-5.5L50.2,1z"/>
		<path class="st0" d="M59,1l4.5,5.5L59,11.9l-4.5-5.5L59,1z"/>
		<path class="st0" d="M67.9,0.9l4.5,5.5l-4.5,5.5l-4.5-5.5L67.9,0.9z"/>
		<path class="st0" d="M76.7,1l4.5,5.5l-4.5,5.5l-4.5-5.5L76.7,1z"/>
		<path class="st0" d="M85.6,0.9L90,6.4l-4.5,5.5l-4.5-5.5L85.6,0.9z"/>
		<path class="st0" d="M23.5,1L28,6.5l-4.5,5.5l-4.5-5.5L23.5,1z"/>
		<path class="st0" d="M14.8,0.9l4.5,5.5l-4.5,5.5l-4.5-5.5L14.8,0.9z"/>
		<path class="st0" d="M6,1l4.5,5.5L6,11.9L1.5,6.5L6,1z"/>
	</g>
	<g>
		<path class="st0" d="M130,0.9l4.5,5.5l-4.5,5.5l-4.5-5.5L130,0.9z"/>
		<path class="st0" d="M192,1l4.5,5.5l-4.5,5.5l-4.5-5.5L192,1z"/>
		<path class="st0" d="M138.9,1l4.5,5.5l-4.5,5.5l-4.5-5.5L138.9,1z"/>
		<path class="st0" d="M147.7,1l4.5,5.5l-4.5,5.5l-4.5-5.5L147.7,1z"/>
		<path class="st0" d="M156.5,1l4.5,5.5l-4.5,5.5l-4.5-5.5L156.5,1z"/>
		<path class="st0" d="M165.4,0.9l4.5,5.5l-4.5,5.5L161,6.4L165.4,0.9z"/>
		<path class="st0" d="M174.2,1l4.5,5.5l-4.5,5.5l-4.5-5.5L174.2,1z"/>
		<path class="st0" d="M183.1,0.9l4.5,5.5l-4.5,5.5l-4.5-5.5L183.1,0.9z"/>
		<path class="st0" d="M121,1l4.5,5.5l-4.5,5.5l-4.5-5.5L121,1z"/>
		<path class="st0" d="M112.3,0.9l4.5,5.5l-4.5,5.5l-4.5-5.5L112.3,0.9z"/>
		<path class="st0" d="M103.5,1l4.5,5.5l-4.5,5.5L99,6.5L103.5,1z"/>
	</g>
	<g>
		<path class="st0" d="M227.5,0.9l4.5,5.5l-4.5,5.5L223,6.4L227.5,0.9z"/>
		<path class="st0" d="M289.5,1l4.5,5.5l-4.5,5.5l-4.5-5.5L289.5,1z"/>
		<path class="st0" d="M236.4,1l4.5,5.5l-4.5,5.5l-4.5-5.5L236.4,1z"/>
		<path class="st0" d="M245.2,1l4.5,5.5l-4.5,5.5l-4.5-5.5L245.2,1z"/>
		<path class="st0" d="M254,1l4.5,5.5l-4.5,5.5l-4.5-5.5L254,1z"/>
		<path class="st0" d="M262.9,0.9l4.5,5.5l-4.5,5.5l-4.5-5.5L262.9,0.9z"/>
		<path class="st0" d="M271.7,1l4.5,5.5l-4.5,5.5l-4.5-5.5L271.7,1z"/>
		<path class="st0" d="M280.6,0.9l4.5,5.5l-4.5,5.5l-4.5-5.5L280.6,0.9z"/>
		<path class="st0" d="M218.5,1l4.5,5.5l-4.5,5.5l-4.5-5.5L218.5,1z"/>
		<path class="st0" d="M209.8,0.9l4.5,5.5l-4.5,5.5l-4.5-5.5L209.8,0.9z"/>
		<path class="st0" d="M201,1l4.5,5.5l-4.5,5.5l-4.5-5.5L201,1z"/>
	</g>
	<g>
		<path class="st0" d="M325,0.9l4.5,5.5l-4.5,5.5l-4.5-5.5L325,0.9z"/>
		<path class="st0" d="M387,1l4.5,5.5l-4.5,5.5l-4.5-5.5L387,1z"/>
		<path class="st0" d="M333.9,1l4.5,5.5l-4.5,5.5l-4.5-5.5L333.9,1z"/>
		<path class="st0" d="M342.7,1l4.5,5.5l-4.5,5.5l-4.5-5.5L342.7,1z"/>
		<path class="st0" d="M351.5,1l4.5,5.5l-4.5,5.5l-4.5-5.5L351.5,1z"/>
		<path class="st0" d="M360.4,0.9l4.5,5.5l-4.5,5.5L356,6.4L360.4,0.9z"/>
		<path class="st0" d="M369.2,1l4.5,5.5l-4.5,5.5l-4.5-5.5L369.2,1z"/>
		<path class="st0" d="M378.1,0.9l4.5,5.5l-4.5,5.5l-4.5-5.5L378.1,0.9z"/>
		<path class="st0" d="M316,1l4.5,5.5l-4.5,5.5l-4.5-5.5L316,1z"/>
		<path class="st0" d="M307.3,0.9l4.5,5.5l-4.5,5.5l-4.5-5.5L307.3,0.9z"/>
		<path class="st0" d="M298.5,1l4.5,5.5l-4.5,5.5L294,6.5L298.5,1z"/>
	</g>
</g>
</svg>
